<?xml version="1.0" encoding="UTF-8"?>
<svg xmlns="http://www.w3.org/2000/svg" viewBox="0 0 4695.02 3514.73">
  <defs>
    <style>
      .uuid-d6153a4e-0454-4ce6-b742-b15d000751c3 {
        isolation: isolate;
      }

      .uuid-0aec5d26-8886-4aac-8b10-897cf2f043d8, .uuid-3f89818a-8e41-43d9-87a5-aed12ba8bce5 {
        stroke-width: 0px;
      }

      .uuid-3f89818a-8e41-43d9-87a5-aed12ba8bce5 {
        fill: #fff;
        mix-blend-mode: screen;
      }
    </style>
  </defs>
  <g class="uuid-d6153a4e-0454-4ce6-b742-b15d000751c3">
    <g id="uuid-7a295aa4-ca98-474c-9d14-4611183a85a2" data-name="Layer 1">
      <rect class="uuid-3f89818a-8e41-43d9-87a5-aed12ba8bce5" width="4695.02" height="3514.73"/>
      <g>
        <path class="uuid-0aec5d26-8886-4aac-8b10-897cf2f043d8" d="m1751.34,1452.04c-145.33,0-263.56,118.24-263.56,263.56s118.23,263.56,263.56,263.56,263.56-118.23,263.56-263.56-118.23-263.56-263.56-263.56Zm0,486.83c-123.11,0-223.27-100.16-223.27-223.27s100.16-223.27,223.27-223.27,223.27,100.16,223.27,223.27-100.16,223.27-223.27,223.27Z"/>
        <path class="uuid-0aec5d26-8886-4aac-8b10-897cf2f043d8" d="m1874.25,1372.46c-38.35-13.73-71.77-39.26-96.66-73.83l-53.9-74.87c-6.46-8.98-8.65-20.41-6-31.36,9.09-37.53,13.7-76.29,13.7-115.22,0-269.13-218.97-488.09-488.11-488.1-.02,0,0,0,0,0-269.04,0-488.02,218.91-488.1,487.95-.04,130.4,50.72,253.01,142.91,345.23,92.2,92.22,214.78,143.01,345.18,143.01h.34c12.53,0,24.25,5.89,31.36,15.77l82.26,114.28c17.89,24.84,29.99,53.39,35.01,82.55,14.43,83.84,58.3,160.47,123.53,215.79,65.71,55.72,149.32,86.36,235.58,86.36.39,0,.8,0,1.19,0,96.99-.31,188.31-38.69,257.14-108.06,68.84-69.39,106.51-161.04,106.06-258.07-.7-152.74-97.76-289.95-241.5-341.43Zm106.83,571.12c-61.24,61.72-142.45,95.87-228.67,96.15-.37,0-.72,0-1.09,0-158.32,0-292.54-112.85-319.37-268.69-6.05-35.15-20.58-69.47-42.02-99.25l-82.26-114.28c-14.66-20.37-38.61-32.52-64.05-32.52h-.36c-119.63,0-232.1-46.59-316.68-131.2-84.59-84.61-131.15-197.09-131.12-316.73.07-246.85,200.96-447.67,447.81-447.67,246.93,0,447.82,200.89,447.82,447.8,0,35.74-4.23,71.32-12.57,105.74-5.42,22.39-.88,45.86,12.46,64.39l53.9,74.87c29.67,41.22,69.7,71.72,115.77,88.22,127.85,45.79,214.16,167.83,214.79,303.68.4,86.25-33.12,167.76-94.37,229.5Z"/>
        <path class="uuid-0aec5d26-8886-4aac-8b10-897cf2f043d8" d="m1577.63,1139.38v-124.4c0-36.19-29.45-65.63-65.65-65.63h-140.89v-140.89c0-36.19-29.44-65.63-65.62-65.63h-124.37c-36.2,0-65.65,29.44-65.65,65.63v140.89h-140.86c-36.2,0-65.65,29.44-65.65,65.63v124.4c0,36.19,29.45,65.63,65.65,65.63h140.86v140.89c0,36.19,29.45,65.63,65.65,65.63h124.37c36.18,0,65.62-29.44,65.62-65.63v-140.89h140.89c36.2,0,65.65-29.44,65.65-65.63Zm-40.3-124.4v124.4c0,13.97-11.38,25.33-25.36,25.33h-114.67c14.74-25.84,23.22-55.71,23.22-87.53s-8.47-61.68-23.22-87.53h114.67c13.98,0,25.36,11.36,25.36,25.33Zm-431.01,62.2c0-75.51,61.44-136.95,136.95-136.95s136.95,61.44,136.95,136.95-61.44,136.95-136.95,136.95-136.95-61.44-136.95-136.95Zm74.76-294.04h124.37c13.97,0,25.33,11.36,25.33,25.33v114.67c-25.84-14.74-55.7-23.21-87.51-23.21s-61.7,8.48-87.54,23.22v-114.69c0-13.97,11.38-25.33,25.36-25.33Zm-231.87,356.24v-124.4c0-13.97,11.38-25.33,25.36-25.33h114.67c-14.74,25.84-23.22,55.71-23.22,87.53s8.47,61.69,23.22,87.53h-114.67c-13.98,0-25.36-11.36-25.36-25.33Zm356.24,231.84h-124.37c-13.98,0-25.36-11.36-25.36-25.33v-114.69c25.85,14.75,55.71,23.22,87.54,23.22s61.67-8.47,87.51-23.21v114.68c0,13.97-11.36,25.33-25.33,25.33Z"/>
        <path class="uuid-0aec5d26-8886-4aac-8b10-897cf2f043d8" d="m3200.55,957.27c-66.12,0-119.91,53.79-119.91,119.91s53.79,119.92,119.91,119.92,119.91-53.79,119.91-119.92-53.79-119.91-119.91-119.91Zm0,199.53c-43.9,0-79.62-35.72-79.62-79.62s35.72-79.62,79.62-79.62,79.62,35.72,79.62,79.62-35.72,79.62-79.62,79.62Z"/>
        <path class="uuid-0aec5d26-8886-4aac-8b10-897cf2f043d8" d="m3583.02,1077.18c0,66.12,53.79,119.92,119.91,119.92s119.92-53.79,119.92-119.92-53.8-119.91-119.92-119.91-119.91,53.79-119.91,119.91Zm199.54,0c0,43.9-35.72,79.62-79.62,79.62s-79.62-35.72-79.62-79.62,35.72-79.62,79.62-79.62,79.62,35.72,79.62,79.62Z"/>
        <path class="uuid-0aec5d26-8886-4aac-8b10-897cf2f043d8" d="m3451.74,706.07c-66.12,0-119.91,53.79-119.91,119.91s53.79,119.91,119.91,119.91,119.91-53.79,119.91-119.91-53.79-119.91-119.91-119.91Zm0,199.53c-43.9,0-79.62-35.72-79.62-79.62s35.72-79.62,79.62-79.62,79.62,35.72,79.62,79.62-35.72,79.62-79.62,79.62Z"/>
        <path class="uuid-0aec5d26-8886-4aac-8b10-897cf2f043d8" d="m3451.74,1208.46c-66.12,0-119.91,53.79-119.91,119.91s53.79,119.91,119.91,119.91,119.91-53.79,119.91-119.91-53.79-119.91-119.91-119.91Zm0,199.53c-43.9,0-79.62-35.72-79.62-79.62s35.72-79.62,79.62-79.62,79.62,35.72,79.62,79.62-35.72,79.62-79.62,79.62Z"/>
        <path class="uuid-0aec5d26-8886-4aac-8b10-897cf2f043d8" d="m2943.68,1452.04c-145.33,0-263.56,118.24-263.56,263.56s118.23,263.56,263.56,263.56,263.56-118.23,263.56-263.56-118.23-263.56-263.56-263.56Zm0,486.83c-123.11,0-223.27-100.16-223.27-223.27s100.16-223.27,223.27-223.27,223.27,100.16,223.27,223.27-100.16,223.27-223.27,223.27Z"/>
        <path class="uuid-0aec5d26-8886-4aac-8b10-897cf2f043d8" d="m4358.74,2243.16c-42.68-374.22-150.35-934.45-420.87-1478.21-8.45-16.99-17.29-35.08-27.82-56.92-21.49-44.59-87.26-155.52-233.56-222.35-82.87-37.85-178.79-55.37-285.1-52.07-126.8,3.94-269.82,37.68-425.12,100.31-32.25,4.56-379.77,52.93-618.76,52.93s-586.51-48.37-618.76-52.93c-155.3-62.62-298.31-96.37-425.11-100.3-106.3-3.31-202.22,14.22-285.1,52.07-146.3,66.82-212.08,177.76-233.56,222.35-10.51,21.82-19.35,39.91-27.81,56.92-270.52,543.75-378.19,1103.99-420.87,1478.21-8.28,72.41-12.48,146.26-12.48,219.48,0,186.22,26.8,371.2,79.66,549.8l.44,1.5.67,1.41c44.16,93.22,146.68,154.26,267.56,159.29,120.85,5.08,228.08-47.26,279.83-136.48l442.38-762.56c6.74-11.61,18.23-19.2,31.52-20.82,13.61-1.65,26.91,3.1,36.53,13.05,83.74,86.63,196.2,134.35,316.65,134.35,186.14,0,352.95-117.81,415.1-293.15,6.14-17.33,22.36-28.98,40.35-28.98h226c17.99,0,34.21,11.65,40.35,28.98,62.15,175.34,228.97,293.15,415.1,293.15,120.45,0,232.91-47.71,316.65-134.35,9.62-9.95,22.93-14.69,36.53-13.05,13.3,1.62,24.78,9.21,31.52,20.82l442.38,762.56c49.46,85.27,149.59,136.82,263.88,136.81,5.28,0,10.62-.11,15.96-.33,120.87-5.03,223.39-66.07,267.55-159.29l.67-1.41.44-1.5c52.86-178.59,79.66-363.57,79.66-549.8,0-73.22-4.2-147.07-12.48-219.48Zm-105.37,756.31c-38.11,78.87-126.9,130.52-232.16,134.9-105.79,4.42-199.08-40.21-243.3-116.44l-442.38-762.56c-13.13-22.64-35.55-37.44-61.5-40.6-3.45-.42-6.89-.63-10.31-.63-22.57,0-44.03,9.07-60.07,25.67-76.08,78.71-178.25,122.06-287.68,122.06-169.11,0-320.66-107.03-377.13-266.32-11.83-33.39-43.31-55.82-78.33-55.82h-226c-35.02,0-66.5,22.43-78.33,55.81-56.46,159.29-208.02,266.32-377.13,266.32-109.43,0-211.6-43.35-287.68-122.06-18.47-19.11-44.13-28.25-70.38-25.04-25.95,3.16-48.36,17.96-61.5,40.6l-442.39,762.56c-44.22,76.23-137.43,120.85-243.3,116.44-105.26-4.38-194.05-56.03-232.16-134.9-51.46-174.4-77.56-355.02-77.56-536.83,0-71.7,4.11-144.01,12.22-214.91,42.32-371.01,149-926.32,416.91-1464.83,8.54-17.17,17.45-35.4,28.04-57.38,19.59-40.65,79.65-141.82,214-203.19,173.79-79.38,402.79-62.6,680.64,49.86l2.26.91,2.42.35c3.71.54,374.44,53.68,626.92,53.68s623.2-53.15,626.92-53.68l2.42-.35,2.26-.91c277.85-112.46,506.84-129.24,680.64-49.86,134.35,61.37,194.41,162.54,214,203.19,10.6,22,19.51,40.23,28.04,57.38,267.92,538.52,374.6,1093.82,416.91,1464.83,8.11,70.9,12.22,143.2,12.22,214.91,0,181.82-26.1,362.43-77.56,536.83Z"/>
        <path class="uuid-0aec5d26-8886-4aac-8b10-897cf2f043d8" d="m3451.75,589.09c-269.15,0-488.12,218.96-488.12,488.1,0,38.93,4.61,77.7,13.7,115.23,2.65,10.95.46,22.38-6,31.36l-53.9,74.87c-24.88,34.56-58.31,60.09-96.66,73.83-143.74,51.48-240.8,188.69-241.5,341.43-.45,97.03,37.22,188.68,106.07,258.07,68.83,69.37,160.15,107.75,257.14,108.06.4,0,.79,0,1.19,0,86.26,0,169.88-30.65,235.58-86.36,65.23-55.32,109.1-131.95,123.53-215.79,5.02-29.15,17.12-57.7,35.01-82.54l82.26-114.28c7.11-9.88,18.83-15.77,31.38-15.77h.33c130.4,0,252.99-50.79,345.18-143.01,92.2-92.22,142.95-214.83,142.92-345.23-.08-269.06-219.04-487.96-488.11-487.95Zm316.7,804.69c-84.58,84.61-197.05,131.2-316.68,131.2h-.34c-25.46,0-49.41,12.16-64.07,32.52l-82.26,114.28c-21.44,29.79-35.97,64.11-42.02,99.26-26.83,155.85-161.04,268.7-319.37,268.69-.36,0-.73,0-1.09,0-86.22-.28-167.42-34.43-228.66-96.15-61.26-61.74-94.77-143.24-94.38-229.5.63-135.85,86.94-257.89,214.79-303.68,46.07-16.5,86.1-47.01,115.77-88.22l53.9-74.87c13.34-18.53,17.89-42,12.46-64.39h0c-8.34-34.43-12.57-70-12.57-105.74,0-246.91,200.89-447.79,447.82-447.8,246.85,0,447.74,200.82,447.81,447.67.03,119.64-46.53,232.12-131.12,316.73Z"/>
        <path class="uuid-0aec5d26-8886-4aac-8b10-897cf2f043d8" d="m2540.67,964.33c0-106.51-86.65-193.17-193.16-193.17s-193.16,86.65-193.16,193.17,86.65,193.16,193.16,193.16,193.16-86.65,193.16-193.16Zm-193.16,152.87c-84.29,0-152.87-68.58-152.87-152.87s68.58-152.87,152.87-152.87,152.87,68.58,152.87,152.87-68.58,152.87-152.87,152.87Z"/>
        <path class="uuid-0aec5d26-8886-4aac-8b10-897cf2f043d8" d="m2196.37,1272.63h-141.63c-14.45,0-26.21,11.76-26.21,26.21v71.44c0,14.45,11.76,26.21,26.21,26.21h141.63c14.45,0,26.21-11.76,26.21-26.21v-71.44c0-14.45-11.76-26.21-26.21-26.21Zm-14.09,83.56h-113.46v-43.26h113.46v43.26Z"/>
        <path class="uuid-0aec5d26-8886-4aac-8b10-897cf2f043d8" d="m2666.49,1334.56c0-10.19-6.86-19.18-16.7-21.85l-137.28-37.3c-7.95-2.16-16.25-.53-22.79,4.47-6.54,5-10.29,12.59-10.29,20.82v67.71c0,8.23,3.75,15.82,10.29,20.82,4.65,3.55,10.18,5.4,15.84,5.4,2.31,0,4.64-.31,6.94-.93l137.27-37.3c9.83-2.67,16.7-11.65,16.71-21.84Zm-146.76,15.42v-30.85l56.77,15.43-56.77,15.43Z"/>
        <path class="uuid-0aec5d26-8886-4aac-8b10-897cf2f043d8" d="m1401.86,375.22h0c2.17-11.07-5.19-21.82-16.31-23.73-176.42-30.26-307.87,3.67-388.1,38.32-61,26.34-101.97,56.64-122.97,74.41-9.17,7.76-9.6,21.73-.89,30l.05.04c7.44,7.07,18.98,7.43,26.83.82,45.26-38.1,205.84-150.62,478.12-103.9,10.82,1.86,21.16-5.19,23.27-15.96Z"/>
        <path class="uuid-0aec5d26-8886-4aac-8b10-897cf2f043d8" d="m3679.61,425.95c57.57,24.58,96.12,53.25,114.92,69.11,7.87,6.63,19.44,6.29,26.89-.8l.04-.04c8.69-8.28,8.25-22.24-.91-29.99-20.99-17.76-61.97-48.07-122.99-74.42-80.23-34.65-211.67-68.58-388.1-38.32-11.12,1.91-18.48,12.66-16.31,23.73h0c2.11,10.77,12.45,17.81,23.26,15.96,165.56-28.37,288.35,2.81,363.19,34.77Z"/>
      </g>
    </g>
  </g>
</svg>